{"title":"Caribbean ~ Yuri Honma FULL HD (Uncensored)","uid":10806916,"size":734327442,"categoryP":"porn","categoryS":"hd___movies","magnet":"?xt=urn:btih:293ad6e77c3a36617ff78a9b367977e1053d25fa&amp;dn=Caribbean+%7E+Yuri+Honma+FULL+HD+%28Uncensored%29&amp;tr=udp%3A%2F%2Ftracker.openbittorrent.com%3A80&amp;tr=udp%3A%2F%2Fopen.demonii.com%3A1337&amp;tr=udp%3A%2F%2Ftracker.coppersurfer.tk%3A6969&amp;tr=udp%3A%2F%2Fexodus.desync.com%3A6969","seeders":0,"leechers":1,"uploader":"ThousandPeers","files":-1,"time":1408389417,"description":"Format                                   : MPEG-4\nFormat profile                           : Base Media / Version 2\nCodec ID                                 : mp42\nFile size                                : 55.6 MiB\nDuration                                 : 1mn 48s\nOverall bit rate mode                    : Variable\nOverall bit rate                         : 4 305 Kbps\nEncoded date                             : UTC 2013-12-24 11:57:55\nTagged date                              : UTC 2013-12-24 11:57:57\n\nVideo\nID                                       : 2\nFormat                                   : AVC\nFormat/Info                              : Advanced Video Codec\nFormat profile                           : &lt;a class=&quot;__cf_email__&quot; href=&quot;/cdn-cgi/l/email-protection&quot; data-cfemail=&quot;99d1f0fef1d9d5adb7ab&quot;&gt;[email&amp;#160;protected]&lt;/a&gt;&lt;script cf-hash='f9e31' type=&quot;text/javascript&quot;&gt;\n/* &lt;![CDATA[ */!function(){try{var t=&quot;currentScript&quot;in document?document.currentScript:function(){for(var t=document.getElementsByTagName(&quot;script&quot;),e=t.length;e--;)if(t[e].getAttribute(&quot;cf-hash&quot;))return t[e]}();if(t&amp;&amp;t.previousSibling){var e,r,n,i,c=t.previousSibling,a=c.getAttribute(&quot;data-cfemail&quot;);if(a){for(e=&quot;&quot;,r=parseInt(a.substr(0,2),16),n=2;a.length-n;n+=2)i=parseInt(a.substr(n,2),16)^r,e+=String.fromCharCode(i);e=document.createTextNode(e),c.parentNode.replaceChild(e,c)}}}catch(u){}}();/* ]]&gt; */&lt;/script&gt;\nFormat settings, CABAC                   : Yes\nFormat settings, ReFrames                : 4 frames\nCodec ID                                 : avc1\nCodec ID/Info                            : Advanced Video Coding\nDuration                                 : 1mn 48s\nBit rate                                 : 4 126 Kbps\nWidth                                    : 1 920 pixels\nHeight                                   : 1 080 pixels\nDisplay aspect ratio                     : 16:9\nFrame rate mode                          : Constant\nFrame rate                               : 29.970 fps\nColor space                              : YUV\nChroma subsampling                       : 4:2:0\nBit depth                                : 8 bits\nScan type                                : Progressive\nBits/(Pixel*Frame)                       : 0.066\nStream size                              : 53.3 MiB (96%)\nEncoded date                             : UTC 2013-12-24 11:57:55\nTagged date                              : UTC 2013-12-24 11:57:57\n\nAudio\nID                                       : 1\nFormat                                   : AAC\nFormat/Info                              : Advanced Audio Codec\nFormat profile                           : LC\nCodec ID                                 : 40\nDuration                                 : 1mn 48s\nSource duration                          : 1mn 48s\nBit rate mode                            : Variable\nBit rate                                 : 173 Kbps\nMaximum bit rate                         : 192 Kbps\nChannel(s)                               : 2 channels\nChannel positions                        : Front: L R\nSampling rate                            : 48.0 KHz\nCompression mode                         : Lossy\nDelay relative to video                  : 66ms\nStream size                              : 2.23 MiB (4%)\nSource stream size                       : 2.23 MiB (4%)\nEncoded date                             : UTC 2013-12-24 11:57:55\nTagged date                              : UTC 2013-12-24 11:57:57\n","torrent":{"xt":"urn:btih:293ad6e77c3a36617ff78a9b367977e1053d25fa","amp;dn":"Caribbean+%7E+Yuri+Honma+FULL+HD+%28Uncensored%29","amp;tr":["udp%3A%2F%2Ftracker.openbittorrent.com%3A80","udp%3A%2F%2Fopen.demonii.com%3A1337","udp%3A%2F%2Ftracker.coppersurfer.tk%3A6969","udp%3A%2F%2Fexodus.desync.com%3A6969"],"infoHash":"293ad6e77c3a36617ff78a9b367977e1053d25fa","infoHashBuffer":{"type":"Buffer","data":[41,58,214,231,124,58,54,97,127,247,138,155,54,121,119,225,5,61,37,250]},"announce":[],"urlList":[]}}